<svg width="22" height="16" viewBox="0 0 22 16" fill="none" xmlns="http://www.w3.org/2000/svg">
<path d="M13.542 8C13.542 8.79565 13.2259 9.55871 12.6633 10.1213C12.1007 10.6839 11.3376 11 10.542 11C9.74634 11 8.98328 10.6839 8.42067 10.1213C7.85806 9.55871 7.54199 8.79565 7.54199 8C7.54199 7.20435 7.85806 6.44129 8.42067 5.87868C8.98328 5.31607 9.74634 5 10.542 5C11.3376 5 12.1007 5.31607 12.6633 5.87868C13.2259 6.44129 13.542 7.20435 13.542 8Z" stroke="#9CA3AF" stroke-width="2" stroke-linecap="round" stroke-linejoin="round"/>
<path d="M1 8C2.274 3.943 6.065 1 10.542 1C15.02 1 18.81 3.943 20.084 8C18.81 12.057 15.02 15 10.542 15C6.065 15 2.274 12.057 1 8Z" stroke="#9CA3AF" stroke-width="2" stroke-linecap="round" stroke-linejoin="round"/>
</svg>
